<svg xmlns="http://www.w3.org/2000/svg" viewBox="0 0 48 48" fill="none">
  <defs>
    <linearGradient id="bg" x1="0" y1="0" x2="0" y2="1">
      <stop offset="0" stop-color="#fb923c" />
      <stop offset="0.5" stop-color="#f97316" />
      <stop offset="1" stop-color="#ea580c" />
    </linearGradient>
  </defs>
  <rect width="48" height="48" rx="11" fill="url(#bg)" stroke="rgba(251,146,60,0.6)" stroke-width="1" />
  <ellipse cx="24" cy="7" rx="18" ry="8" fill="white" fill-opacity="0.18" />
  <rect x="4" y="2" width="40" height="22" rx="9" fill="white" fill-opacity="0.22" />
  <ellipse cx="24" cy="42" rx="16" ry="2.5" fill="rgba(120,53,15,0.12)" />
  <path d="M10 7V41M38 7V41" stroke="white" stroke-width="3.5" stroke-linecap="round" />
  <path d="M10 17H38M10 29H38M10 41H38" stroke="white" stroke-width="3.5" stroke-linecap="round" />
  <rect x="13" y="7" width="4" height="9" rx="2" fill="white" fill-opacity="0.95" />
  <rect x="23" y="8" width="12" height="8" rx="2" fill="white" fill-opacity="0.7" />
  <rect x="12" y="19" width="11" height="9" rx="2" fill="white" fill-opacity="0.7" />
  <rect x="28" y="18" width="4" height="10" rx="2" fill="white" fill-opacity="0.95" />
  <rect x="12" y="31" width="6" height="9" rx="2" fill="white" fill-opacity="0.95" />
  <rect x="23" y="31" width="12" height="9" rx="2" fill="white" fill-opacity="0.7" />
</svg>
